<svg width="23" height="23" viewBox="0 0 23 23" fill="none" xmlns="http://www.w3.org/2000/svg">
<path d="M10.4167 1.14992C10.4167 0.59008 10.883 0.13623 11.4583 0.13623C11.4751 0.13623 11.4919 0.136616 11.5084 0.137386C11.5242 0.136747 11.5401 0.136494 11.556 0.136626C13.6666 0.154122 15.7386 0.73892 17.539 1.83584C19.6346 3.11268 21.2496 5.01492 22.1428 7.2585C23.036 9.50213 23.1596 11.9666 22.4949 14.2842C21.8303 16.6017 20.4132 18.6479 18.4552 20.1171C16.4972 21.5863 14.1034 22.3998 11.6311 22.4362C9.15898 22.4725 6.74102 21.7296 4.73837 20.3185C2.73573 18.9075 1.25583 16.9038 0.519677 14.6069C-0.112752 12.6335 -0.167133 10.5347 0.352072 8.54392C0.493593 8.00127 1.09696 7.72627 1.63943 7.91269C2.1819 8.0991 2.46359 8.67871 2.33341 9.22403C1.95771 10.7978 2.01726 12.4471 2.51531 14.0011C3.11717 15.8791 4.32707 17.5171 5.96436 18.6708C7.60164 19.8244 9.57844 20.4317 11.5997 20.402C13.6208 20.3724 15.5779 19.7074 17.1787 18.5061C18.7795 17.3049 19.938 15.6321 20.4815 13.7373C21.0248 11.8426 20.9239 9.82772 20.1935 7.99343C19.4632 6.15916 18.1429 4.60396 16.4296 3.56006C15.2325 2.83068 13.8884 2.37825 12.5 2.22706V4.19099C12.5 4.75085 12.0336 5.20469 11.4583 5.20469C10.883 5.20469 10.4167 4.75085 10.4167 4.19099V1.14992Z" fill="white"/>
<path fill-rule="evenodd" clip-rule="evenodd" d="M4.49156 3.10191C4.07842 2.83387 3.52829 2.88688 3.17719 3.22856C2.82607 3.57024 2.77161 4.10559 3.04703 4.50764L8.65352 12.6916C8.85993 12.9928 9.17619 13.4169 9.66964 13.7125C10.0292 13.9281 10.6003 14.189 11.2993 14.1974C12.039 14.2064 12.8038 13.9305 13.4891 13.2636C14.1744 12.5967 14.458 11.8524 14.4488 11.1325C14.4401 10.4522 14.172 9.89661 13.9506 9.54668C13.6466 9.06645 13.2109 8.75868 12.9013 8.55782L4.49156 3.10191ZM10.3869 11.567L7.66954 7.60026L11.7457 10.2447C12.0068 10.4141 12.1209 10.5216 12.1766 10.6098C12.2877 10.7852 12.3633 10.978 12.3656 11.1577C12.3673 11.2979 12.3291 11.5253 12.016 11.83C11.7029 12.1347 11.4692 12.1719 11.3252 12.1702C11.1405 12.168 10.9423 12.0944 10.7621 11.9863C10.6715 11.932 10.5611 11.821 10.3869 11.567Z" fill="white"/>
</svg>
