<svg width="25" height="34" viewBox="0 0 25 34" fill="none" xmlns="http://www.w3.org/2000/svg">
<path d="M24.6045 24.2715L21.7194 19.7906V13.4393C21.822 11.7505 21.4181 10.0687 20.5544 8.58834C19.6907 7.10794 18.4024 5.88939 16.8385 5.07357C16.8599 4.8136 16.8599 4.55246 16.8385 4.2925C16.8217 3.76876 16.6961 3.2533 16.4689 2.77559C16.2417 2.29787 15.9174 1.86727 15.5145 1.50839C15.1115 1.14951 14.6379 0.869397 14.1207 0.684057C13.6034 0.498717 13.0527 0.411787 12.5 0.428235C11.9473 0.411787 11.3966 0.498717 10.8793 0.684057C10.3621 0.869397 9.88846 1.14951 9.48553 1.50839C9.08261 1.86727 8.75828 2.29787 8.53108 2.77559C8.30389 3.2533 8.17829 3.76876 8.16146 4.2925C8.12952 4.55197 8.12952 4.81409 8.16146 5.07357C6.59759 5.88939 5.30933 7.10794 4.44561 8.58834C3.5819 10.0687 3.178 11.7505 3.2806 13.4393V19.7906L0.395473 24.2715C0.145906 24.66 0.00960451 25.1042 0.000489258 25.5588C-0.008626 26.0135 0.109771 26.4623 0.343589 26.8594C0.577407 27.2565 0.918269 27.5877 1.33136 27.8192C1.74446 28.0507 2.21499 28.1741 2.6949 28.1769H6.53451C6.63486 29.598 7.31224 30.9271 8.4245 31.8852C9.53676 32.8433 10.9974 33.3559 12.5 33.3156C14.0026 33.3559 15.4632 32.8433 16.5755 31.8852C17.6878 30.9271 18.3651 29.598 18.4655 28.1769H22.3051C22.785 28.1741 23.2555 28.0507 23.6686 27.8192C24.0817 27.5877 24.4226 27.2565 24.6564 26.8594C24.8902 26.4623 25.0086 26.0135 24.9995 25.5588C24.9904 25.1042 24.8541 24.66 24.6045 24.2715ZM10.873 4.2925C10.9116 3.91791 11.1035 3.57256 11.4077 3.33049C11.7118 3.08841 12.104 2.9689 12.5 2.99756C12.896 2.9689 13.2882 3.08841 13.5923 3.33049C13.8965 3.57256 14.0884 3.91791 14.127 4.2925C13.5852 4.26035 13.0418 4.26035 12.5 4.2925C11.9582 4.2598 11.4148 4.2598 10.873 4.2925ZM12.5 30.7462C11.7162 30.7836 10.9462 30.54 10.3433 30.0639C9.74036 29.5879 9.34866 28.9142 9.2461 28.1769H15.7539C15.6513 28.9142 15.2596 29.5879 14.6567 30.0639C14.0538 30.54 13.2838 30.7836 12.5 30.7462ZM2.6949 25.6076L5.60172 21.1472L5.99219 20.5101V13.4393C5.98698 11.8999 6.43794 10.3901 7.29375 9.08171C7.88427 8.31486 8.67391 7.70562 9.58608 7.31308C10.4983 6.92053 11.502 6.75801 12.5 6.84126C13.498 6.75801 14.5017 6.92053 15.4139 7.31308C16.3261 7.70562 17.1157 8.31486 17.7062 9.08171C18.5621 10.3901 19.013 11.8999 19.0078 13.4393V20.5101L19.3983 21.1472L22.3051 25.6076H2.6949Z" fill="white"/>
</svg>
